<svg width="30"
    height="27"
    viewBox="0 0 30 27"
    fill="none"
    xmlns="http://www.w3.org/2000/svg">
    <path
        d="M27.5063 2.49375L24.9937 0L22.5 2.49375L20.0063 0L17.5125 2.49375L15 0L12.5063 2.49375L9.99375 0L7.5 2.49375L5.00625 0L2.49375 2.49375L0 0V23.4375C0 24.9938 1.25625 26.25 2.8125 26.25H27.1875C28.7437 26.25 30 24.9938 30 23.4375V0L27.5063 2.49375ZM27.1875 12.1875H2.8125V6.5625H27.1875V12.1875ZM16.4062 15H27.1875V17.8125H16.4062V15ZM2.8125 15H13.5938V23.4375H2.8125V15ZM16.4062 23.4375V20.625H27.1875V23.4375H16.4062Z"
        fill="#9E9E9E" />
</svg>
